<mxfile host="app.diagrams.net" modified="2024-04-25T19:44:29.288Z" agent="Mozilla/5.0 (Windows NT 10.0; Win64; x64) AppleWebKit/537.36 (KHTML, like Gecko) Chrome/124.0.0.0 Safari/537.36" etag="gFLb-NqJEelrfz_lRjZW" version="24.3.0" type="github">
  <diagram name="Page-1" id="bvxR2ZX43qGQeXfS8alm">
    <mxGraphModel dx="2181" dy="655" grid="1" gridSize="10" guides="1" tooltips="1" connect="1" arrows="1" fold="1" page="1" pageScale="1" pageWidth="827" pageHeight="1169" math="0" shadow="0">
      <root>
        <mxCell id="0" />
        <mxCell id="1" parent="0" />
        <mxCell id="YXz7iy8QgaPYsUlzpC3R-4" value="" style="edgeStyle=orthogonalEdgeStyle;rounded=0;orthogonalLoop=1;jettySize=auto;html=1;" edge="1" parent="1" source="YXz7iy8QgaPYsUlzpC3R-2">
          <mxGeometry relative="1" as="geometry">
            <mxPoint x="250" y="230" as="targetPoint" />
          </mxGeometry>
        </mxCell>
        <mxCell id="YXz7iy8QgaPYsUlzpC3R-2" value="Load&amp;nbsp;&lt;div&gt;Balancer&lt;/div&gt;" style="rhombus;whiteSpace=wrap;html=1;" vertex="1" parent="1">
          <mxGeometry x="90" y="190" width="80" height="80" as="geometry" />
        </mxCell>
        <mxCell id="YXz7iy8QgaPYsUlzpC3R-48" style="edgeStyle=orthogonalEdgeStyle;rounded=0;orthogonalLoop=1;jettySize=auto;html=1;exitX=1;exitY=0.5;exitDx=0;exitDy=0;" edge="1" parent="1" source="YXz7iy8QgaPYsUlzpC3R-26">
          <mxGeometry relative="1" as="geometry">
            <mxPoint x="510" y="215" as="targetPoint" />
          </mxGeometry>
        </mxCell>
        <mxCell id="YXz7iy8QgaPYsUlzpC3R-26" value="" style="whiteSpace=wrap;html=1;aspect=fixed;" vertex="1" parent="1">
          <mxGeometry x="230" y="100" width="230" height="230" as="geometry" />
        </mxCell>
        <mxCell id="YXz7iy8QgaPYsUlzpC3R-27" value="" style="rounded=0;whiteSpace=wrap;html=1;" vertex="1" parent="1">
          <mxGeometry x="270" y="130" width="120" height="30" as="geometry" />
        </mxCell>
        <mxCell id="YXz7iy8QgaPYsUlzpC3R-28" value="" style="rounded=0;whiteSpace=wrap;html=1;" vertex="1" parent="1">
          <mxGeometry x="270" y="170" width="120" height="30" as="geometry" />
        </mxCell>
        <mxCell id="YXz7iy8QgaPYsUlzpC3R-29" value="order Service" style="rounded=0;whiteSpace=wrap;html=1;" vertex="1" parent="1">
          <mxGeometry x="270" y="290" width="120" height="30" as="geometry" />
        </mxCell>
        <mxCell id="YXz7iy8QgaPYsUlzpC3R-30" value="Discount service" style="rounded=0;whiteSpace=wrap;html=1;" vertex="1" parent="1">
          <mxGeometry x="270" y="250" width="120" height="30" as="geometry" />
        </mxCell>
        <mxCell id="YXz7iy8QgaPYsUlzpC3R-31" value="sc service" style="rounded=0;whiteSpace=wrap;html=1;" vertex="1" parent="1">
          <mxGeometry x="270" y="210" width="120" height="30" as="geometry" />
        </mxCell>
        <mxCell id="YXz7iy8QgaPYsUlzpC3R-34" value="Shop UI" style="text;html=1;align=center;verticalAlign=middle;whiteSpace=wrap;rounded=0;" vertex="1" parent="1">
          <mxGeometry x="290" y="130" width="60" height="30" as="geometry" />
        </mxCell>
        <mxCell id="YXz7iy8QgaPYsUlzpC3R-35" value="catalog service" style="text;html=1;align=center;verticalAlign=middle;whiteSpace=wrap;rounded=0;" vertex="1" parent="1">
          <mxGeometry x="285" y="170" width="70" height="30" as="geometry" />
        </mxCell>
        <mxCell id="YXz7iy8QgaPYsUlzpC3R-37" value="E-Commerce" style="text;html=1;align=center;verticalAlign=middle;whiteSpace=wrap;rounded=0;" vertex="1" parent="1">
          <mxGeometry x="280" y="100" width="80" height="20" as="geometry" />
        </mxCell>
        <mxCell id="YXz7iy8QgaPYsUlzpC3R-52" style="edgeStyle=orthogonalEdgeStyle;rounded=0;orthogonalLoop=1;jettySize=auto;html=1;exitX=0.5;exitY=0.5;exitDx=0;exitDy=0;exitPerimeter=0;entryX=0.5;entryY=1;entryDx=0;entryDy=0;" edge="1" parent="1" source="YXz7iy8QgaPYsUlzpC3R-41" target="YXz7iy8QgaPYsUlzpC3R-2">
          <mxGeometry relative="1" as="geometry" />
        </mxCell>
        <mxCell id="YXz7iy8QgaPYsUlzpC3R-41" value="Actor" style="shape=umlActor;verticalLabelPosition=bottom;verticalAlign=top;html=1;outlineConnect=0;" vertex="1" parent="1">
          <mxGeometry x="30" y="260" width="30" height="60" as="geometry" />
        </mxCell>
        <mxCell id="YXz7iy8QgaPYsUlzpC3R-50" style="edgeStyle=orthogonalEdgeStyle;rounded=0;orthogonalLoop=1;jettySize=auto;html=1;exitX=0.5;exitY=0.5;exitDx=0;exitDy=0;exitPerimeter=0;" edge="1" parent="1" source="YXz7iy8QgaPYsUlzpC3R-42" target="YXz7iy8QgaPYsUlzpC3R-2">
          <mxGeometry relative="1" as="geometry" />
        </mxCell>
        <mxCell id="YXz7iy8QgaPYsUlzpC3R-42" value="Actor" style="shape=umlActor;verticalLabelPosition=bottom;verticalAlign=top;html=1;outlineConnect=0;" vertex="1" parent="1">
          <mxGeometry x="40" y="100" width="30" height="60" as="geometry" />
        </mxCell>
        <mxCell id="YXz7iy8QgaPYsUlzpC3R-49" value="RDB" style="shape=cylinder3;whiteSpace=wrap;html=1;boundedLbl=1;backgroundOutline=1;size=15;" vertex="1" parent="1">
          <mxGeometry x="510" y="175" width="60" height="80" as="geometry" />
        </mxCell>
        <mxCell id="YXz7iy8QgaPYsUlzpC3R-57" value="" style="shape=actor;whiteSpace=wrap;html=1;" vertex="1" parent="1">
          <mxGeometry x="50" y="480" width="40" height="60" as="geometry" />
        </mxCell>
        <mxCell id="YXz7iy8QgaPYsUlzpC3R-59" value="" style="rounded=0;whiteSpace=wrap;html=1;" vertex="1" parent="1">
          <mxGeometry x="30" y="520" width="90" height="40" as="geometry" />
        </mxCell>
        <mxCell id="YXz7iy8QgaPYsUlzpC3R-60" value="Web" style="text;html=1;align=center;verticalAlign=middle;whiteSpace=wrap;rounded=0;" vertex="1" parent="1">
          <mxGeometry x="40" y="525" width="60" height="30" as="geometry" />
        </mxCell>
        <mxCell id="YXz7iy8QgaPYsUlzpC3R-61" value="" style="shape=actor;whiteSpace=wrap;html=1;" vertex="1" parent="1">
          <mxGeometry x="55" y="600" width="40" height="60" as="geometry" />
        </mxCell>
        <mxCell id="YXz7iy8QgaPYsUlzpC3R-154" style="edgeStyle=orthogonalEdgeStyle;rounded=0;orthogonalLoop=1;jettySize=auto;html=1;exitX=1;exitY=0.5;exitDx=0;exitDy=0;entryX=0;entryY=0.5;entryDx=0;entryDy=0;" edge="1" parent="1" source="YXz7iy8QgaPYsUlzpC3R-63" target="YXz7iy8QgaPYsUlzpC3R-69">
          <mxGeometry relative="1" as="geometry" />
        </mxCell>
        <mxCell id="YXz7iy8QgaPYsUlzpC3R-63" value="" style="rounded=0;whiteSpace=wrap;html=1;" vertex="1" parent="1">
          <mxGeometry x="25" y="660" width="90" height="30" as="geometry" />
        </mxCell>
        <mxCell id="YXz7iy8QgaPYsUlzpC3R-64" value="Mobile" style="text;html=1;align=center;verticalAlign=middle;whiteSpace=wrap;rounded=0;" vertex="1" parent="1">
          <mxGeometry x="45" y="660" width="60" height="30" as="geometry" />
        </mxCell>
        <mxCell id="YXz7iy8QgaPYsUlzpC3R-65" value="" style="endArrow=none;dashed=1;html=1;rounded=0;" edge="1" parent="1">
          <mxGeometry width="50" height="50" relative="1" as="geometry">
            <mxPoint x="-40" y="721.25" as="sourcePoint" />
            <mxPoint x="-40" y="461.25" as="targetPoint" />
            <Array as="points" />
          </mxGeometry>
        </mxCell>
        <mxCell id="YXz7iy8QgaPYsUlzpC3R-66" value="" style="endArrow=none;dashed=1;html=1;rounded=0;" edge="1" parent="1">
          <mxGeometry width="50" height="50" relative="1" as="geometry">
            <mxPoint x="130.38000000000002" y="440.01" as="sourcePoint" />
            <mxPoint x="-40.39" y="690.01" as="targetPoint" />
            <Array as="points">
              <mxPoint x="-40.39" y="440.01" />
            </Array>
          </mxGeometry>
        </mxCell>
        <mxCell id="YXz7iy8QgaPYsUlzpC3R-67" value="" style="endArrow=none;dashed=1;html=1;rounded=0;" edge="1" parent="1">
          <mxGeometry width="50" height="50" relative="1" as="geometry">
            <mxPoint x="130" y="720" as="sourcePoint" />
            <mxPoint x="130" y="440" as="targetPoint" />
          </mxGeometry>
        </mxCell>
        <mxCell id="YXz7iy8QgaPYsUlzpC3R-68" value="" style="endArrow=none;dashed=1;html=1;dashPattern=1 3;strokeWidth=2;rounded=0;" edge="1" parent="1">
          <mxGeometry width="50" height="50" relative="1" as="geometry">
            <mxPoint x="-30" y="720" as="sourcePoint" />
            <mxPoint x="130" y="720" as="targetPoint" />
          </mxGeometry>
        </mxCell>
        <mxCell id="YXz7iy8QgaPYsUlzpC3R-122" style="edgeStyle=orthogonalEdgeStyle;rounded=0;orthogonalLoop=1;jettySize=auto;html=1;exitX=1;exitY=0.25;exitDx=0;exitDy=0;entryX=0;entryY=0.5;entryDx=0;entryDy=0;" edge="1" parent="1" source="YXz7iy8QgaPYsUlzpC3R-69" target="YXz7iy8QgaPYsUlzpC3R-71">
          <mxGeometry relative="1" as="geometry">
            <Array as="points">
              <mxPoint x="300" y="567" />
              <mxPoint x="300" y="497" />
            </Array>
          </mxGeometry>
        </mxCell>
        <mxCell id="YXz7iy8QgaPYsUlzpC3R-69" value="" style="rounded=0;whiteSpace=wrap;html=1;strokeColor=default;" vertex="1" parent="1">
          <mxGeometry x="235" y="500" width="45" height="270" as="geometry" />
        </mxCell>
        <mxCell id="YXz7iy8QgaPYsUlzpC3R-71" value="" style="rounded=0;whiteSpace=wrap;html=1;" vertex="1" parent="1">
          <mxGeometry x="310" y="475" width="110" height="45" as="geometry" />
        </mxCell>
        <mxCell id="YXz7iy8QgaPYsUlzpC3R-157" style="edgeStyle=orthogonalEdgeStyle;rounded=0;orthogonalLoop=1;jettySize=auto;html=1;exitX=0.5;exitY=0;exitDx=0;exitDy=0;" edge="1" parent="1" source="YXz7iy8QgaPYsUlzpC3R-73">
          <mxGeometry relative="1" as="geometry">
            <mxPoint x="370" y="670" as="targetPoint" />
          </mxGeometry>
        </mxCell>
        <mxCell id="YXz7iy8QgaPYsUlzpC3R-73" value="Discount service" style="rounded=0;whiteSpace=wrap;html=1;" vertex="1" parent="1">
          <mxGeometry x="320" y="680" width="110" height="40" as="geometry" />
        </mxCell>
        <mxCell id="YXz7iy8QgaPYsUlzpC3R-75" value="catalog" style="rounded=0;whiteSpace=wrap;html=1;" vertex="1" parent="1">
          <mxGeometry x="320" y="542.51" width="110" height="45" as="geometry" />
        </mxCell>
        <mxCell id="YXz7iy8QgaPYsUlzpC3R-78" value="shoping cart" style="rounded=0;whiteSpace=wrap;html=1;" vertex="1" parent="1">
          <mxGeometry x="320" y="610" width="110" height="45" as="geometry" />
        </mxCell>
        <mxCell id="YXz7iy8QgaPYsUlzpC3R-79" value="order service" style="rounded=0;whiteSpace=wrap;html=1;" vertex="1" parent="1">
          <mxGeometry x="320" y="754.38" width="110" height="45" as="geometry" />
        </mxCell>
        <mxCell id="YXz7iy8QgaPYsUlzpC3R-99" value="DB" style="shape=cylinder3;whiteSpace=wrap;html=1;boundedLbl=1;backgroundOutline=1;size=15;" vertex="1" parent="1">
          <mxGeometry x="460" y="680" width="60" height="70" as="geometry" />
        </mxCell>
        <mxCell id="YXz7iy8QgaPYsUlzpC3R-108" value="DB" style="shape=cylinder3;whiteSpace=wrap;html=1;boundedLbl=1;backgroundOutline=1;size=15;" vertex="1" parent="1">
          <mxGeometry x="460" y="754.38" width="60" height="58.75" as="geometry" />
        </mxCell>
        <mxCell id="YXz7iy8QgaPYsUlzpC3R-150" style="edgeStyle=orthogonalEdgeStyle;rounded=0;orthogonalLoop=1;jettySize=auto;html=1;exitX=1;exitY=0.5;exitDx=0;exitDy=0;exitPerimeter=0;entryX=0.5;entryY=1;entryDx=0;entryDy=0;" edge="1" parent="1" source="YXz7iy8QgaPYsUlzpC3R-109" target="YXz7iy8QgaPYsUlzpC3R-136">
          <mxGeometry relative="1" as="geometry" />
        </mxCell>
        <mxCell id="YXz7iy8QgaPYsUlzpC3R-109" value="DB" style="shape=cylinder3;whiteSpace=wrap;html=1;boundedLbl=1;backgroundOutline=1;size=15;" vertex="1" parent="1">
          <mxGeometry x="460" y="610" width="60" height="51.88" as="geometry" />
        </mxCell>
        <mxCell id="YXz7iy8QgaPYsUlzpC3R-110" value="DB" style="shape=cylinder3;whiteSpace=wrap;html=1;boundedLbl=1;backgroundOutline=1;size=15;" vertex="1" parent="1">
          <mxGeometry x="450" y="535.63" width="60" height="58.75" as="geometry" />
        </mxCell>
        <mxCell id="YXz7iy8QgaPYsUlzpC3R-149" style="edgeStyle=orthogonalEdgeStyle;rounded=0;orthogonalLoop=1;jettySize=auto;html=1;exitX=1;exitY=0;exitDx=0;exitDy=36.5625;exitPerimeter=0;entryX=0.75;entryY=1;entryDx=0;entryDy=0;" edge="1" parent="1" source="YXz7iy8QgaPYsUlzpC3R-111" target="YXz7iy8QgaPYsUlzpC3R-115">
          <mxGeometry relative="1" as="geometry" />
        </mxCell>
        <mxCell id="YXz7iy8QgaPYsUlzpC3R-111" value="" style="shape=cylinder3;whiteSpace=wrap;html=1;boundedLbl=1;backgroundOutline=1;size=15;" vertex="1" parent="1">
          <mxGeometry x="440" y="461.25" width="60" height="58.75" as="geometry" />
        </mxCell>
        <mxCell id="YXz7iy8QgaPYsUlzpC3R-113" value="DB" style="text;html=1;align=center;verticalAlign=middle;whiteSpace=wrap;rounded=0;" vertex="1" parent="1">
          <mxGeometry x="430" y="490" width="60" height="30" as="geometry" />
        </mxCell>
        <mxCell id="YXz7iy8QgaPYsUlzpC3R-115" value="" style="rounded=0;whiteSpace=wrap;html=1;direction=west;" vertex="1" parent="1">
          <mxGeometry x="630" y="510" width="60" height="250" as="geometry" />
        </mxCell>
        <mxCell id="YXz7iy8QgaPYsUlzpC3R-127" value="" style="endArrow=none;dashed=1;html=1;dashPattern=1 3;strokeWidth=2;rounded=0;" edge="1" parent="1">
          <mxGeometry width="50" height="50" relative="1" as="geometry">
            <mxPoint x="206.22881355932213" y="446.25" as="sourcePoint" />
            <mxPoint x="755" y="439.38" as="targetPoint" />
            <Array as="points">
              <mxPoint x="205" y="439" />
            </Array>
          </mxGeometry>
        </mxCell>
        <mxCell id="YXz7iy8QgaPYsUlzpC3R-128" value="" style="endArrow=none;dashed=1;html=1;dashPattern=1 3;strokeWidth=2;rounded=0;" edge="1" parent="1">
          <mxGeometry width="50" height="50" relative="1" as="geometry">
            <mxPoint x="760" y="840" as="sourcePoint" />
            <mxPoint x="750" y="440" as="targetPoint" />
          </mxGeometry>
        </mxCell>
        <mxCell id="YXz7iy8QgaPYsUlzpC3R-129" value="" style="endArrow=none;dashed=1;html=1;dashPattern=1 3;strokeWidth=2;rounded=0;" edge="1" parent="1">
          <mxGeometry width="50" height="50" relative="1" as="geometry">
            <mxPoint x="210" y="830" as="sourcePoint" />
            <mxPoint x="760" y="830" as="targetPoint" />
          </mxGeometry>
        </mxCell>
        <mxCell id="YXz7iy8QgaPYsUlzpC3R-133" value="Shop ui" style="text;html=1;align=center;verticalAlign=middle;whiteSpace=wrap;rounded=0;" vertex="1" parent="1">
          <mxGeometry x="335" y="490" width="60" height="30" as="geometry" />
        </mxCell>
        <mxCell id="YXz7iy8QgaPYsUlzpC3R-134" value="Client apps" style="text;html=1;align=center;verticalAlign=middle;whiteSpace=wrap;rounded=0;" vertex="1" parent="1">
          <mxGeometry x="25" y="450" width="60" height="40" as="geometry" />
        </mxCell>
        <mxCell id="YXz7iy8QgaPYsUlzpC3R-135" value="API GATEWAY" style="text;html=1;align=center;verticalAlign=middle;whiteSpace=wrap;rounded=0;rotation=90;" vertex="1" parent="1">
          <mxGeometry x="175" y="609.38" width="150" height="30" as="geometry" />
        </mxCell>
        <mxCell id="YXz7iy8QgaPYsUlzpC3R-136" value="MESSAGE BROKER" style="text;html=1;align=center;verticalAlign=middle;whiteSpace=wrap;rounded=0;rotation=90;" vertex="1" parent="1">
          <mxGeometry x="575" y="605" width="160" height="40" as="geometry" />
        </mxCell>
        <mxCell id="YXz7iy8QgaPYsUlzpC3R-141" style="edgeStyle=orthogonalEdgeStyle;rounded=0;orthogonalLoop=1;jettySize=auto;html=1;entryX=0.978;entryY=0.811;entryDx=0;entryDy=0;entryPerimeter=0;" edge="1" parent="1" source="YXz7iy8QgaPYsUlzpC3R-110" target="YXz7iy8QgaPYsUlzpC3R-115">
          <mxGeometry relative="1" as="geometry" />
        </mxCell>
        <mxCell id="YXz7iy8QgaPYsUlzpC3R-144" style="edgeStyle=orthogonalEdgeStyle;rounded=0;orthogonalLoop=1;jettySize=auto;html=1;entryX=0.333;entryY=0.5;entryDx=0;entryDy=0;entryPerimeter=0;" edge="1" parent="1" source="YXz7iy8QgaPYsUlzpC3R-133" target="YXz7iy8QgaPYsUlzpC3R-113">
          <mxGeometry relative="1" as="geometry" />
        </mxCell>
        <mxCell id="YXz7iy8QgaPYsUlzpC3R-145" style="edgeStyle=orthogonalEdgeStyle;rounded=0;orthogonalLoop=1;jettySize=auto;html=1;exitX=1;exitY=0.75;exitDx=0;exitDy=0;entryX=0;entryY=0;entryDx=0;entryDy=36.5625;entryPerimeter=0;" edge="1" parent="1" source="YXz7iy8QgaPYsUlzpC3R-75" target="YXz7iy8QgaPYsUlzpC3R-110">
          <mxGeometry relative="1" as="geometry" />
        </mxCell>
        <mxCell id="YXz7iy8QgaPYsUlzpC3R-146" style="edgeStyle=orthogonalEdgeStyle;rounded=0;orthogonalLoop=1;jettySize=auto;html=1;exitX=1;exitY=0.75;exitDx=0;exitDy=0;entryX=0;entryY=0;entryDx=0;entryDy=31.410000000000004;entryPerimeter=0;" edge="1" parent="1" source="YXz7iy8QgaPYsUlzpC3R-78" target="YXz7iy8QgaPYsUlzpC3R-109">
          <mxGeometry relative="1" as="geometry" />
        </mxCell>
        <mxCell id="YXz7iy8QgaPYsUlzpC3R-147" style="edgeStyle=orthogonalEdgeStyle;rounded=0;orthogonalLoop=1;jettySize=auto;html=1;exitX=1;exitY=0.75;exitDx=0;exitDy=0;entryX=0;entryY=0.5;entryDx=0;entryDy=0;entryPerimeter=0;" edge="1" parent="1" source="YXz7iy8QgaPYsUlzpC3R-73" target="YXz7iy8QgaPYsUlzpC3R-99">
          <mxGeometry relative="1" as="geometry" />
        </mxCell>
        <mxCell id="YXz7iy8QgaPYsUlzpC3R-148" style="edgeStyle=orthogonalEdgeStyle;rounded=0;orthogonalLoop=1;jettySize=auto;html=1;exitX=1;exitY=0.5;exitDx=0;exitDy=0;entryX=0;entryY=0.5;entryDx=0;entryDy=0;entryPerimeter=0;" edge="1" parent="1" source="YXz7iy8QgaPYsUlzpC3R-79" target="YXz7iy8QgaPYsUlzpC3R-108">
          <mxGeometry relative="1" as="geometry" />
        </mxCell>
        <mxCell id="YXz7iy8QgaPYsUlzpC3R-151" style="edgeStyle=orthogonalEdgeStyle;rounded=0;orthogonalLoop=1;jettySize=auto;html=1;exitX=1;exitY=1;exitDx=0;exitDy=0;entryX=0.855;entryY=1;entryDx=0;entryDy=-4.35;entryPerimeter=0;" edge="1" parent="1" source="YXz7iy8QgaPYsUlzpC3R-136" target="YXz7iy8QgaPYsUlzpC3R-99">
          <mxGeometry relative="1" as="geometry" />
        </mxCell>
        <mxCell id="YXz7iy8QgaPYsUlzpC3R-153" style="edgeStyle=orthogonalEdgeStyle;rounded=0;orthogonalLoop=1;jettySize=auto;html=1;exitX=1;exitY=0.5;exitDx=0;exitDy=0;entryX=-0.035;entryY=0.417;entryDx=0;entryDy=0;entryPerimeter=0;" edge="1" parent="1" source="YXz7iy8QgaPYsUlzpC3R-59" target="YXz7iy8QgaPYsUlzpC3R-69">
          <mxGeometry relative="1" as="geometry" />
        </mxCell>
        <mxCell id="YXz7iy8QgaPYsUlzpC3R-159" value="" style="endArrow=none;dashed=1;html=1;dashPattern=1 3;strokeWidth=2;rounded=0;" edge="1" parent="1">
          <mxGeometry width="50" height="50" relative="1" as="geometry">
            <mxPoint x="207" y="830" as="sourcePoint" />
            <mxPoint x="207.45016611295705" y="440.01" as="targetPoint" />
            <Array as="points" />
          </mxGeometry>
        </mxCell>
        <mxCell id="YXz7iy8QgaPYsUlzpC3R-160" value="" style="endArrow=classic;html=1;rounded=0;exitX=1;exitY=0.25;exitDx=0;exitDy=0;" edge="1" parent="1" source="YXz7iy8QgaPYsUlzpC3R-69">
          <mxGeometry width="50" height="50" relative="1" as="geometry">
            <mxPoint x="340" y="610" as="sourcePoint" />
            <mxPoint x="320" y="570" as="targetPoint" />
          </mxGeometry>
        </mxCell>
        <mxCell id="YXz7iy8QgaPYsUlzpC3R-162" value="" style="endArrow=classic;html=1;rounded=0;exitX=1;exitY=0.75;exitDx=0;exitDy=0;entryX=0;entryY=0.5;entryDx=0;entryDy=0;" edge="1" parent="1" source="YXz7iy8QgaPYsUlzpC3R-69" target="YXz7iy8QgaPYsUlzpC3R-73">
          <mxGeometry width="50" height="50" relative="1" as="geometry">
            <mxPoint x="340" y="610" as="sourcePoint" />
            <mxPoint x="390" y="560" as="targetPoint" />
          </mxGeometry>
        </mxCell>
        <mxCell id="YXz7iy8QgaPYsUlzpC3R-164" value="" style="endArrow=classic;html=1;rounded=0;exitX=1;exitY=0.5;exitDx=0;exitDy=0;entryX=0;entryY=0.5;entryDx=0;entryDy=0;" edge="1" parent="1" source="YXz7iy8QgaPYsUlzpC3R-69" target="YXz7iy8QgaPYsUlzpC3R-78">
          <mxGeometry width="50" height="50" relative="1" as="geometry">
            <mxPoint x="340" y="610" as="sourcePoint" />
            <mxPoint x="390" y="560" as="targetPoint" />
          </mxGeometry>
        </mxCell>
        <mxCell id="YXz7iy8QgaPYsUlzpC3R-165" value="" style="endArrow=classic;html=1;rounded=0;exitX=1.046;exitY=0.947;exitDx=0;exitDy=0;exitPerimeter=0;entryX=0;entryY=0.25;entryDx=0;entryDy=0;" edge="1" parent="1" source="YXz7iy8QgaPYsUlzpC3R-69" target="YXz7iy8QgaPYsUlzpC3R-79">
          <mxGeometry width="50" height="50" relative="1" as="geometry">
            <mxPoint x="340" y="610" as="sourcePoint" />
            <mxPoint x="390" y="560" as="targetPoint" />
          </mxGeometry>
        </mxCell>
        <mxCell id="YXz7iy8QgaPYsUlzpC3R-166" value="MICRO SERVICES" style="text;html=1;align=center;verticalAlign=middle;whiteSpace=wrap;rounded=0;" vertex="1" parent="1">
          <mxGeometry x="345" y="445" width="95" height="30" as="geometry" />
        </mxCell>
        <mxCell id="YXz7iy8QgaPYsUlzpC3R-167" value="MICRO SERVICES ARCHITECTURE" style="text;strokeColor=none;fillColor=none;html=1;fontSize=24;fontStyle=1;verticalAlign=middle;align=center;" vertex="1" parent="1">
          <mxGeometry x="130" y="370" width="500" height="30" as="geometry" />
        </mxCell>
        <mxCell id="YXz7iy8QgaPYsUlzpC3R-168" value="MONOLITHIC ARCHITECTURE" style="text;strokeColor=none;fillColor=none;html=1;fontSize=24;fontStyle=1;verticalAlign=middle;align=center;" vertex="1" parent="1">
          <mxGeometry x="185" y="20" width="335" height="40" as="geometry" />
        </mxCell>
      </root>
    </mxGraphModel>
  </diagram>
</mxfile>
